<svg width="0" height="0" class="hidden">
  <symbol version="1.1" id="avatar" xmlns="http://www.w3.org/2000/svg" xmlns:xlink="http://www.w3.org/1999/xlink" x="0px" y="0px" xml:space="preserve" viewBox="0 0 480 480">
    <g>
      <g>
        <circle cx="240" cy="240" r="240"></circle>
      </g>
      <g>
        <g>
          <path d="M240,360.07c-27.944,0-53.297-11.991-72.003-31.372c-0.014,11.615-0.436,28.379-3.516,40.611
				c2.02,1.235,3.588,3.262,3.894,5.784c3.992,32.484,34.781,56.977,71.625,56.977c36.836,0,67.625-24.496,71.625-56.977
				c0.31-2.525,1.844-4.549,3.895-5.78c-3.08-12.233-3.503-28.999-3.517-40.615C293.297,348.079,267.944,360.07,240,360.07z"></path>
        </g>
      </g>
      <g>
        <g>
          <path d="M310.44,330.174c-18.549,18.477-43.242,29.896-70.44,29.896
				c-27.944,0-53.297-11.991-72.003-31.372c-0.014,11.615-0.436,28.379-3.516,40.611c2.02,1.235,3.588,3.262,3.894,5.784
				c1.765,14.359,8.778,27.144,19.223,36.954C235.766,405.265,290.437,357.702,310.44,330.174z"></path>
        </g>
      </g>
      <g>
        <g>
          <path d="M312,160.07H176c-22.055,0-40,17.945-40,40v48c0,61.758,46.656,112,104,112s104-50.242,104-112
				v-56C344,174.426,329.648,160.07,312,160.07z"></path>
        </g>
      </g>
      <g>
        <g>
          <path d="M296,72.07H192c-15.047,0-27.695,10.438-31.102,24.449C133.359,100.02,112,123.598,112,152.07v40
				c0,20.617,8.752,39.851,24,53.52v-45.52c0-22.055,17.945-40,40-40h136c17.648,0,32,14.355,32,32v53.511
				c15.251-13.667,24-32.899,24-53.511v-48C368,104.371,335.703,72.07,296,72.07z"></path>
        </g>
      </g>
      <g>
        <path d="M61.632,400.544C105.562,449.319,169.191,480,240,480s134.438-30.681,178.368-79.456
			c-7.66-10.356-18.462-18.77-32.352-22.659c-0.32-0.09-0.641-0.16-0.969-0.207l-63.859-9.582c-0.391-0.059-1.227-0.09-1.625-0.09
			c-4.039,0-7.445,3.012-7.938,7.023c-4,32.48-34.789,56.977-71.625,56.977c-36.844,0-67.633-24.492-71.625-56.977
			c-0.5-4.129-4.219-7.234-8.141-7.02c-0.469-0.027-0.93,0.012-1.422,0.086l-63.859,9.582c-0.328,0.047-0.648,0.117-0.969,0.207
			C80.094,381.775,69.292,390.188,61.632,400.544z"></path>
      </g>
    </g>
    <g></g>
    <g></g>
    <g></g>
    <g></g>
    <g></g>
    <g></g>
    <g></g>
    <g></g>
    <g></g>
    <g></g>
    <g></g>
    <g></g>
    <g></g>
    <g></g>
    <g></g>
  </symbol>
  <symbol xmlns="http://www.w3.org/2000/svg" viewBox="0 0 20 20" id="date">
    <path fill="#454242" d="M5.67326018,0 C6.0598595,0 6.37326018,0.31324366 6.37326018,0.699649298 L6.373,2.009 L13.89,2.009 L13.8901337,0.708141199 C13.8901337,0.321735562 14.2035343,0.00849190182 14.5901337,0.00849190182 C14.976733,0.00849190182 15.2901337,0.321735562 15.2901337,0.708141199 L15.29,2.009 L18,2.00901806 C19.1045695,2.00901806 20,2.90399995 20,4.00801605 L20,18.001002 C20,19.1050181 19.1045695,20 18,20 L2,20 C0.8954305,20 0,19.1050181 0,18.001002 L0,4.00801605 C0,2.90399995 0.8954305,2.00901806 2,2.00901806 L4.973,2.009 L4.97326018,0.699649298 C4.97326018,0.31324366 5.28666085,0 5.67326018,0 Z M1.4,7.742 L1.4,18.001002 C1.4,18.3322068 1.66862915,18.6007014 2,18.6007014 L18,18.6007014 C18.3313708,18.6007014 18.6,18.3322068 18.6,18.001002 L18.6,7.756 L1.4,7.742 Z M6.66666667,14.6186466 L6.66666667,16.284778 L5,16.284778 L5,14.6186466 L6.66666667,14.6186466 Z M10.8333333,14.6186466 L10.8333333,16.284778 L9.16666667,16.284778 L9.16666667,14.6186466 L10.8333333,14.6186466 Z M15,14.6186466 L15,16.284778 L13.3333333,16.284778 L13.3333333,14.6186466 L15,14.6186466 Z M6.66666667,10.6417617 L6.66666667,12.3078931 L5,12.3078931 L5,10.6417617 L6.66666667,10.6417617 Z M10.8333333,10.6417617 L10.8333333,12.3078931 L9.16666667,12.3078931 L9.16666667,10.6417617 L10.8333333,10.6417617 Z M15,10.6417617 L15,12.3078931 L13.3333333,12.3078931 L13.3333333,10.6417617 L15,10.6417617 Z M4.973,3.408 L2,3.40831666 C1.66862915,3.40831666 1.4,3.67681122 1.4,4.00801605 L1.4,6.343 L18.6,6.357 L18.6,4.00801605 C18.6,3.67681122 18.3313708,3.40831666 18,3.40831666 L15.29,3.408 L15.2901337,4.33697436 C15.2901337,4.72338 14.976733,5.03662366 14.5901337,5.03662366 C14.2035343,5.03662366 13.8901337,4.72338 13.8901337,4.33697436 L13.89,3.408 L6.373,3.408 L6.37326018,4.32848246 C6.37326018,4.7148881 6.0598595,5.02813176 5.67326018,5.02813176 C5.28666085,5.02813176 4.97326018,4.7148881 4.97326018,4.32848246 L4.973,3.408 Z"></path>
  </symbol>
  <symbol xmlns="http://www.w3.org/2000/svg" viewBox="0 0 16 16" id="check">
    <path d="M13.7071,4.29289 C14.0976,4.68342 14.0976,5.31658 13.7071,5.70711 L7.70711,11.7071 C7.31658,12.0976 6.68342,12.0976 6.29289,11.7071 L3.29289,8.70711 C2.90237,8.31658 2.90237,7.68342 3.29289,7.29289 C3.68342,6.90237 4.31658,6.90237 4.70711,7.29289 L7,9.58579 L12.2929,4.29289 C12.6834,3.90237 13.3166,3.90237 13.7071,4.29289 Z"></path>
  </symbol>
  <symbol version="1.1" id="delete" xmlns="http://www.w3.org/2000/svg" xmlns:xlink="http://www.w3.org/1999/xlink" x="0px" y="0px" xml:space="preserve" viewBox="0 0 297 297">
    <g>
      <g>
        <g>
          <path d="M229.554,145.738l4.264-51.168h7.462c5.646,0,10.224-4.578,10.224-10.224V65.688c0-17.596-14.316-31.912-31.912-31.912
				h-35.564v-4.723C184.028,13.032,170.994,0,154.975,0h-29.82c-16.02,0-29.052,13.032-29.052,29.052v4.723H60.539
				c-17.596,0-31.912,14.316-31.912,31.912v18.658c0,5.646,4.578,10.224,10.224,10.224h7.462L60.205,261.3
				c1.668,20.019,18.711,35.7,38.799,35.7h82.119c19.849,0,36.715-15.313,38.723-34.991c27.664-5.705,48.527-30.251,48.527-59.579
				C268.374,176.649,252.245,154.579,229.554,145.738z M116.551,29.052c0-4.744,3.86-8.604,8.604-8.604h29.82
				c4.745,0,8.605,3.86,8.605,8.604v4.723h-47.029V29.052z M49.073,74.123v-8.435c0-6.322,5.143-11.465,11.465-11.465h159.053
				c6.322,0,11.465,5.143,11.465,11.465v8.435H49.073z M181.124,276.552H99.005c-9.538,0-17.63-7.445-18.422-16.95L66.83,94.57
				h146.469l-3.923,47.076c-0.611-0.018-1.22-0.047-1.835-0.047c-33.543,0-60.831,27.289-60.831,60.831
				c0,30.647,22.785,56.06,52.303,60.221C196.942,270.65,189.614,276.552,181.124,276.552z M207.541,242.814
				c-22.268,0-40.384-18.116-40.384-40.384s18.116-40.384,40.384-40.384s40.384,18.116,40.384,40.384
				S229.809,242.814,207.541,242.814z"></path>
          <path d="M222.002,202.431l9.64-9.64c3.991-3.993,3.991-10.467-0.002-14.459c-3.994-3.992-10.465-3.992-14.459,0l-9.64,9.64
				l-9.64-9.64c-3.994-3.992-10.465-3.992-14.459,0c-3.993,3.993-3.993,10.466,0,14.459l9.64,9.64l-9.64,9.64
				c-3.993,3.993-3.993,10.466,0,14.459c1.997,1.996,4.613,2.994,7.23,2.994s5.233-0.998,7.23-2.994l9.64-9.64l9.64,9.64
				c1.997,1.996,4.613,2.994,7.23,2.994c2.617,0,5.233-0.998,7.23-2.994c3.993-3.993,3.993-10.466,0-14.459L222.002,202.431z"></path>
        </g>
      </g>
    </g>
    <g></g>
    <g></g>
    <g></g>
    <g></g>
    <g></g>
    <g></g>
    <g></g>
    <g></g>
    <g></g>
    <g></g>
    <g></g>
    <g></g>
    <g></g>
    <g></g>
    <g></g>
  </symbol>
  <symbol version="1.1" id="edit" xmlns="http://www.w3.org/2000/svg" xmlns:xlink="http://www.w3.org/1999/xlink" x="0px" y="0px" xml:space="preserve" viewBox="0 0 512 512">
    <g>
      <g>
        <path d="M397.736,78.378c6.824,0,12.358-5.533,12.358-12.358V27.027C410.094,12.125,397.977,0,383.08,0H121.641
			c-3.277,0-6.42,1.303-8.739,3.62L10.527,105.995c-2.317,2.317-3.62,5.461-3.62,8.738v370.239C6.908,499.875,19.032,512,33.935,512
			h349.144c14.897,0,27.014-12.125,27.014-27.027V296.289c0.001-6.824-5.532-12.358-12.357-12.358
			c-6.824,0-12.358,5.533-12.358,12.358v188.684c0,1.274-1.031,2.311-2.297,2.311H33.936c-1.274,0-2.311-1.037-2.311-2.311v-357.88
			h75.36c14.898,0,27.016-12.12,27.016-27.017V24.716H383.08c1.267,0,2.297,1.037,2.297,2.311V66.02
			C385.377,72.845,390.911,78.378,397.736,78.378z M109.285,100.075c0,1.269-1.032,2.301-2.3,2.301H49.107l60.178-60.18V100.075z"></path>
      </g>
    </g>
    <g>
      <g>
        <path d="M492.865,100.396l-14.541-14.539c-16.304-16.304-42.832-16.302-59.138,0L303.763,201.28H103.559
			c-6.825,0-12.358,5.533-12.358,12.358c0,6.825,5.533,12.358,12.358,12.358h175.488l-74.379,74.379H103.559
			c-6.825,0-12.358,5.533-12.358,12.358s5.533,12.358,12.358,12.358h76.392l-0.199,0.199c-1.508,1.508-2.598,3.379-3.169,5.433
			l-19.088,68.747h-53.936c-6.825,0-12.358,5.533-12.358,12.358s5.533,12.358,12.358,12.358h63.332c0.001,0,2.709-0.306,3.107-0.41
			c0.065-0.017,77.997-21.642,77.997-21.642c2.054-0.57,3.926-1.662,5.433-3.169l239.438-239.435
			C509.168,143.228,509.168,116.7,492.865,100.396z M184.644,394.073l10.087-36.326l26.24,26.24L184.644,394.073z M244.69,372.752
			l-38.721-38.721l197.648-197.648l38.722,38.721L244.69,372.752z M475.387,142.054l-15.571,15.571l-38.722-38.722l15.571-15.571
			c6.669-6.668,17.517-6.667,24.181,0l14.541,14.541C482.054,124.54,482.054,135.388,475.387,142.054z"></path>
      </g>
    </g>
    <g></g>
    <g></g>
    <g></g>
    <g></g>
    <g></g>
    <g></g>
    <g></g>
    <g></g>
    <g></g>
    <g></g>
    <g></g>
    <g></g>
    <g></g>
    <g></g>
    <g></g>
  </symbol>
  <symbol version="1.1" id="logo" xmlns="http://www.w3.org/2000/svg" xmlns:xlink="http://www.w3.org/1999/xlink" x="0px" y="0px" xml:space="preserve" viewBox="0 0 60 60">
    <g>
      <path d="M58.453,45.101c-0.116-0.367-0.434-0.634-0.814-0.688l-7.777-1.089l-3.472-6.78c-0.342-0.668-1.438-0.668-1.779,0
		l-3.472,6.78l-7.777,1.089c-0.381,0.054-0.698,0.32-0.814,0.688s-0.012,0.768,0.269,1.031l5.605,5.267L37.1,58.825
		c-0.066,0.373,0.084,0.752,0.388,0.978c0.305,0.226,0.711,0.262,1.049,0.089l6.964-3.528l6.964,3.528
		C52.607,59.965,52.762,60,52.916,60c0.211,0,0.421-0.066,0.597-0.197c0.304-0.226,0.454-0.604,0.388-0.978l-1.321-7.427
		l5.605-5.267C58.465,45.868,58.57,45.468,58.453,45.101z M50.816,50.312c-0.246,0.231-0.359,0.571-0.3,0.903l1.064,5.987
		l-5.628-2.852c-0.143-0.072-0.297-0.108-0.452-0.108s-0.31,0.036-0.452,0.108l-5.628,2.852l1.064-5.987
		c0.06-0.332-0.054-0.672-0.3-0.903l-4.479-4.207l6.225-0.872c0.322-0.045,0.603-0.244,0.751-0.534l2.818-5.504l2.818,5.504
		c0.148,0.29,0.429,0.489,0.751,0.534l6.225,0.872L50.816,50.312z"></path>
      <path d="M11.5,2h34v30h2V0h-36h-10v60h10h20v-2h-20V2z M3.5,58V2h6v56H3.5z"></path>
      <path d="M40.5,24V10h-24v14H40.5z M18.5,12h20v10h-20V12z"></path>
      <rect x="21.5" y="14" width="14" height="2"></rect>
      <rect x="21.5" y="18" width="14" height="2"></rect>
    </g>
    <g></g>
    <g></g>
    <g></g>
    <g></g>
    <g></g>
    <g></g>
    <g></g>
    <g></g>
    <g></g>
    <g></g>
    <g></g>
    <g></g>
    <g></g>
    <g></g>
    <g></g>
  </symbol>
  <symbol version="1.1" id="time" xmlns="http://www.w3.org/2000/svg" xmlns:xlink="http://www.w3.org/1999/xlink" x="0px" y="0px" xml:space="preserve" viewBox="0 0 488.898 488.898">
    <g>
      <g>
        <path d="M487.247,218.699c-17.9-168.2-171.6-228.2-269.4-217.5c-72.9,8-137.3,47.9-177.9,109.2c-6.2,9.4-4.2,21.8,5.2,28.1
			s21.8,3.1,28.1-6.2c34.3-51,88.4-84.3,148.8-90.5c103.6-10.7,203.6,52.4,224.7,181c15.5,94.4-58.6,212.6-181,224.7
			c-74.6,7.4-147.3-25.9-189.4-86.5l38.5,8.5c10.4,2.1,21.8-4.2,23.9-15.6c2.1-10.4-4.2-21.8-15.6-23.9l-81.1-17.7
			c-5.2-1-22-0.4-25,15.6l-16.6,82.2c-2.1,10.4,4.2,21.8,15.6,23.9c13,1.1,21.8-6.2,23.9-16.6l6.2-28.2
			c79.5,111.3,215.3,99.8,223.7,99C400.047,475.399,503.047,366.099,487.247,218.699z"></path>
        <path d="M260.447,129.199c-11.4,0-20.8,9.4-20.8,20.8v94.7c0,5.2,2.1,10.4,6.2,14.6l94.7,94.7c12.2,11.6,25,4.2,30.2,1
			c8.3-8.3,8.3-20.8,0-29.1l-89.5-89.5v-86.3C281.347,138.599,271.947,129.199,260.447,129.199z"></path>
      </g>
    </g>
    <g></g>
    <g></g>
    <g></g>
    <g></g>
    <g></g>
    <g></g>
    <g></g>
    <g></g>
    <g></g>
    <g></g>
    <g></g>
    <g></g>
    <g></g>
    <g></g>
    <g></g>
  </symbol>
</svg>